<svg id="Capa_1" enable-background="new 0 0 512 512" height="512" viewBox="0 0 512 512" width="512" xmlns="http://www.w3.org/2000/svg"><g><path d="m176 512h160c55.141 0 100-44.86 100-100v-312c0-55.14-44.859-100-100-100h-160c-55.141 0-100 44.86-100 100v312c0 55.14 44.859 100 100 100zm-60-412c0-33.084 26.916-60 60-60h160c33.084 0 60 26.916 60 60v312c0 33.084-26.916 60-60 60h-160c-33.084 0-60-26.916-60-60z"/><path d="m316 216c0-33.084-26.916-60-60-60s-60 26.916-60 60 26.916 60 60 60 60-26.916 60-60zm-60 20c-11.028 0-20-8.972-20-20s8.972-20 20-20 20 8.972 20 20-8.972 20-20 20z"/><path d="m176 396c11.046 0 20-8.954 20-20 0-33.084 26.916-60 60-60s60 26.916 60 60c0 11.046 8.954 20 20 20s20-8.954 20-20c0-55.14-44.859-100-100-100s-100 44.86-100 100c0 11.046 8.954 20 20 20z"/><circle cx="256" cy="416" r="20"/><path d="m236 120h40c11.046 0 20-8.954 20-20s-8.954-20-20-20h-40c-11.046 0-20 8.954-20 20s8.954 20 20 20z"/></g></svg>