<svg id="Capa_1" enable-background="new 0 0 512 512" height="512" viewBox="0 0 512 512" width="512" xmlns="http://www.w3.org/2000/svg"><g><path d="m60 200h20v140c0 11.046 8.954 20 20 20s20-8.954 20-20v-140h116v140c0 11.046 8.954 20 20 20s20-8.954 20-20v-140h116v140c0 11.046 8.954 20 20 20s20-8.954 20-20v-140h20c33.084 0 60-26.916 60-60 0-24.664-14.782-46.521-37.668-55.7l-195.926-79.97c-.044-.018-.088-.036-.133-.054-7.096-2.837-14.589-4.276-22.273-4.276-7.682 0-15.176 1.438-22.272 4.276-.045.018-.09.036-.134.054l-195.933 79.972c-22.88 9.182-37.661 31.038-37.661 55.698 0 33.084 26.916 60 60 60zm-7.42-78.584c.043-.017.086-.035.129-.052l195.922-79.968c4.674-1.853 10.064-1.852 14.736-.001l195.924 79.969c.043.017.086.035.13.052 7.641 3.057 12.579 10.352 12.579 18.584 0 11.028-8.972 20-20 20h-392c-11.028 0-20-8.972-20-20 0-8.232 4.938-15.527 12.58-18.584z"/><path d="m60 512h392c33.084 0 60-26.916 60-60s-26.916-60-60-60h-392c-33.084 0-60 26.916-60 60s26.916 60 60 60zm0-80h392c11.028 0 20 8.972 20 20s-8.972 20-20 20h-392c-11.028 0-20-8.972-20-20s8.972-20 20-20z"/><circle cx="256" cy="100" r="20"/></g></svg>