<svg id="Capa_1" enable-background="new 0 0 512 512" height="512" viewBox="0 0 512 512" width="512" xmlns="http://www.w3.org/2000/svg"><g><circle cx="256" cy="256" r="20"/><path d="m452 36h-392c-33.084 0-60 26.916-60 60 0 11.046 8.954 20 20 20s20-8.954 20-20c0-11.028 8.972-20 20-20h96.993c2.85 28.458 11.762 54.895 25.797 75.947 18.939 28.408 44.939 44.053 73.21 44.053s54.271-15.645 73.209-44.053c14.035-21.052 22.947-47.489 25.797-75.947h96.994c11.028 0 20 8.972 20 20 0 11.046 8.954 20 20 20s20-8.954 20-20c0-33.084-26.916-60-60-60zm-196 120c-28.428 0-53-34.989-58.737-80h117.474c-5.737 45.011-30.309 80-58.737 80z"/><path d="m96 116c-11.046 0-20 8.954-20 20v240c0 55.14 44.86 100 100 100h160c55.14 0 100-44.86 100-100v-240c0-11.046-8.954-20-20-20s-20 8.954-20 20v240c0 33.084-26.916 60-60 60h-160c-33.084 0-60-26.916-60-60v-240c0-11.046-8.954-20-20-20z"/><path d="m316 336c0 11.028-8.972 20-20 20-11.046 0-20 8.954-20 20s8.954 20 20 20c33.084 0 60-26.916 60-60 0-11.046-8.954-20-20-20s-20 8.954-20 20z"/><path d="m216 396c11.046 0 20-8.954 20-20s-8.954-20-20-20c-11.028 0-20-8.972-20-20 0-11.046-8.954-20-20-20s-20 8.954-20 20c0 33.084 26.916 60 60 60z"/></g></svg>