<svg id="Layer_1" enable-background="new 0 0 512.002 512.002" height="512" viewBox="0 0 512.002 512.002" width="512" xmlns="http://www.w3.org/2000/svg"><path d="m512.001 117.101c0 47.366-38.131 85.901-85 85.901s-85-38.535-85-85.901c0-36.297 4.859-96.195 5.066-98.727.899-11.009 10.555-19.199 21.562-18.305 11.009.899 19.204 10.553 18.305 21.562-.049.604-4.934 60.812-4.934 95.47 0 25.31 20.187 45.901 45 45.901s45-20.591 45-45.901c0-34.682-4.884-94.866-4.934-95.47-.899-11.009 7.296-20.663 18.305-21.562 11.011-.907 20.663 7.296 21.562 18.305.209 2.531 5.068 62.43 5.068 98.727zm-85-.099c11.046 0 20-8.954 20-20v-77c0-11.046-8.954-20-20-20s-20 8.954-20 20v77c0 11.046 8.954 20 20 20zm-278.846-72.132c13.475 22.668 21.846 50.346 21.846 72.231 0 47.366-38.131 85.901-85 85.901s-85-38.535-85-85.901c0-21.885 8.371-49.563 21.846-72.231 17.2-28.934 39.628-44.868 63.154-44.868s45.954 15.934 63.154 44.868zm-18.154 72.231c0-14.648-6.522-35.461-16.23-51.792-9.279-15.61-20.303-25.307-28.77-25.307s-19.491 9.697-28.77 25.307c-9.708 16.33-16.23 37.144-16.23 51.792 0 25.31 20.187 45.901 45 45.901s45-20.591 45-45.901zm-45 125.901c-11.046 0-20 8.954-20 20v229c0 11.046 8.954 20 20 20s20-8.954 20-20v-229c0-11.046-8.954-20-20-20zm214-223v472c0 11.046-8.954 20-20 20s-20-8.954-20-20v-97.947c-47.765-27.188-78.818-69.424-80.175-71.29-2.486-3.418-3.825-7.537-3.825-11.764 0-82.156 23.589-159.637 43.377-210.168 21.389-54.617 42.645-89.762 43.539-91.231 4.662-7.659 13.853-11.279 22.484-8.858 8.633 2.422 14.6 10.292 14.6 19.258zm-40 86.96c-1.229 3.02-2.459 6.105-3.691 9.261-17.833 45.706-38.988 114.854-40.25 187.943 6.904 8.429 22.609 26.238 43.941 42.126zm188 385.04v-229c0-11.046-8.954-20-20-20s-20 8.954-20 20v229c0 11.046 8.954 20 20 20s20-8.954 20-20z"/></svg>