<svg id="Layer_1" enable-background="new 0 0 512 512" height="512" viewBox="0 0 512 512" width="512" xmlns="http://www.w3.org/2000/svg"><path d="m412 351.972c-56.075 0-100-30.748-100-70s43.925-70 100-70 100 30.748 100 70-43.925 70-100 70zm0-100c-17.414 0-34.169 4.229-45.969 11.604-8.917 5.573-14.031 12.278-14.031 18.396s5.114 12.822 14.031 18.396c11.8 7.375 28.555 11.604 45.969 11.604s34.169-4.229 45.969-11.604c8.917-5.573 14.031-12.278 14.031-18.396s-5.114-12.822-14.031-18.396c-11.8-7.375-28.555-11.604-45.969-11.604zm90.731 232.198c8.946-6.479 10.945-18.984 4.467-27.93-6.479-8.946-18.982-10.947-27.93-4.467-37.006 26.803-99.531 26.803-136.537 0-8.944-6.479-21.449-4.479-27.93 4.467-6.479 8.945-4.479 21.45 4.467 27.93 24.754 17.928 57.331 27.802 91.731 27.802s66.979-9.874 91.732-27.802zm0-80c8.946-6.479 10.945-18.984 4.467-27.93-6.479-8.946-18.982-10.946-27.93-4.467-37.006 26.803-99.531 26.803-136.537 0-8.944-6.479-21.449-4.479-27.93 4.467-6.479 8.945-4.479 21.45 4.467 27.93 24.754 17.928 57.331 27.802 91.731 27.802s66.979-9.874 91.732-27.802zm-227.731 87.802c0-11.046-8.954-20-20-20h-135c-44.112 0-80-35.888-80-80v-204.236c0-21.368 8.321-41.458 23.432-56.568l67.764-67.765c31.193-31.192 81.946-31.191 113.083-.056l67.29 67.819c9.735 9.736 16.828 21.894 20.513 35.157 2.956 10.643 13.98 16.872 24.623 13.918 10.643-2.956 16.874-13.98 13.918-24.623-5.527-19.896-16.166-38.132-30.714-52.681l-67.291-67.82c-46.787-46.787-122.917-46.785-169.706 0l-67.765 67.766c-22.665 22.667-35.147 52.8-35.147 84.853v204.235c0 66.168 53.832 120 120 120h135c11.046.001 20-8.954 20-19.999zm-87-356c-13.807 0-25 11.193-25 25s11.193 25 25 25 25-11.193 25-25-11.193-25-25-25z"/></svg>