<svg id="Layer_1" enable-background="new 0 0 512 512" height="512" viewBox="0 0 512 512" width="512" xmlns="http://www.w3.org/2000/svg"><path d="m314 291.75c0 24.376-16.486 45-39 51.561v8.689c0 11.046-8.954 20-20 20s-20-8.954-20-20v-9.57c-9.196-1.951-19.365-4.861-29.387-8.844-10.265-4.08-15.279-15.709-11.199-25.973 4.08-10.266 15.711-15.275 25.973-11.199 16.653 6.619 32.944 9.086 39.301 9.086 7.758 0 14.313-6.297 14.313-13.75 0-7.582-8.187-13.75-18.25-13.75-35.203 0-61.75-23.107-61.75-53.75 0-25.566 17.99-47.006 42-52.418v-8.832c0-11.046 8.954-20 20-20s20 8.954 20 20v11.139c6.951 1.74 14.275 4.121 22.249 7.222 10.295 4.003 15.395 15.594 11.391 25.889-4.004 10.294-15.597 15.395-25.889 11.391-18.553-7.215-28.918-8.14-35.876-8.14-7.65 0-13.875 6.168-13.875 13.75 0 7.839 9.351 13.75 21.75 13.75 15.203 0 29.553 5.298 40.406 14.918 11.506 10.198 17.843 23.988 17.843 38.831zm198-35.75c0 68.38-26.629 132.667-74.98 181.02-48.353 48.351-112.64 74.98-181.02 74.98s-132.667-26.629-181.02-74.98c-48.351-48.353-74.98-112.64-74.98-181.02s26.629-132.667 74.98-181.02c48.353-48.351 112.64-74.98 181.02-74.98s132.667 26.629 181.02 74.98c48.351 48.353 74.98 112.64 74.98 181.02zm-40.934 20h-42.066c-11.046 0-20-8.954-20-20s8.954-20 20-20h42.066c-9.519-103.172-91.893-185.547-195.066-195.065v41.065c0 11.046-8.954 20-20 20s-20-8.954-20-20v-41.065c-103.173 9.518-185.547 91.893-195.066 195.065h42.066c11.046 0 20 8.954 20 20s-8.954 20-20 20h-42.066c9.519 103.172 91.893 185.547 195.066 195.065v-42.065c0-11.046 8.954-20 20-20s20 8.954 20 20v42.065c103.173-9.518 185.547-91.893 195.066-195.065z"/></svg>