<svg id="Layer_1" enable-background="new 0 0 512 512" height="512" viewBox="0 0 512 512" width="512" xmlns="http://www.w3.org/2000/svg"><g><path d="m236.029 124v42c0 11.046 8.954 20 20 20s20-8.954 20-20v-62c0-11.046-8.954-20-20-20h-20c-11.046 0-20 8.954-20 20s8.954 20 20 20z"/><path d="m256.029 270c74.439 0 135-60.561 135-135s-60.561-135-135-135-135 60.561-135 135 60.56 135 135 135zm0-230c52.383 0 95 42.617 95 95s-42.617 95-95 95-95-42.617-95-95 42.617-95 95-95z"/><path d="m505.803 381.875c-13.039-25.05-42.723-35.939-70.356-25.454-19.27 7.314-42.832 16.254-68.478 23.326 2.366-11.388 1.186-23.447-3.544-34.912-6.896-16.716-21.069-29.153-38.884-34.122-9.106-2.54-18.992-3.112-29.385-1.699-68.528 9.321-109.325-13.851-145.323-34.294-24.197-13.741-47.05-26.72-73.804-26.72-34 0-61.974 10.913-61.974 10.913-10.542 3.299-16.412 14.519-13.113 25.061 3.299 10.541 14.517 16.415 25.061 13.113 0 0 20.026-9.087 50.026-9.087 16.188 0 32.896 9.489 54.051 21.502 31.676 17.988 73.266 41.611 135.088 41.609 11.116 0 22.895-.765 35.378-2.462 4.89-.665 9.473-.46 13.249.593 4.216 1.176 9.833 4.013 12.654 10.848 2.188 5.302 2.297 10.263.324 14.746-2.419 5.499-7.933 10.056-15.522 12.831-10.955 4.005-26.494 6.139-44.222 6.333-19.013.14-37.59-2.053-53.917-6.343-10.683-2.808-21.62 3.578-24.427 14.261s3.578 21.619 14.261 24.426c19.119 5.024 42.248 7.657 64.083 7.657v-.016c75.998-.341 141.141-24.425 182.61-40.166 6.952-2.637 16.506-1.502 20.697 6.553 3.752 7.208.99 16.179-6.157 19.998-50.195 26.815-108.444 51.63-194.038 51.63-76.199 0-146.387-29.405-191.849-54.072-35.021-19.002-60.613-13-63.415-12.253l.024.09c-8.557 2.267-14.873 10.042-14.873 19.312 0 11.046 8.954 20 20 20 1.821 0 3.577-.265 5.254-.721 2.938-.398 15.475-1.286 33.934 8.73 49.533 26.876 126.334 58.914 210.925 58.914 107.407 0 178.649-38.06 212.886-56.35 26.394-14.101 36.618-47.185 22.776-73.775z"/></g></svg>