<?xml version="1.0" encoding="iso-8859-1"?>
<!-- Generator: Adobe Illustrator 19.0.0, SVG Export Plug-In . SVG Version: 6.00 Build 0)  -->
<svg version="1.1" id="Capa_1" xmlns="http://www.w3.org/2000/svg" xmlns:xlink="http://www.w3.org/1999/xlink" x="0px" y="0px"
	 viewBox="0 0 512.014 512.014" style="enable-background:new 0 0 512.014 512.014;" xml:space="preserve">
<g>
	<g>
		<path d="M144,144.007c-9.792,0-16-5.248-16-8s6.208-8,16-8c4.864,0,9.216,1.184,12.544,3.392c7.36,4.832,17.28,2.912,22.208-4.416
			c4.896-7.36,2.944-17.312-4.416-22.208c-4.352-2.88-9.184-5.088-14.336-6.56V80.007c0-8.832-7.168-16-16-16
			c-8.832,0-16,7.168-16,16v18.464c-18.592,5.504-32,20.16-32,37.536c0,22.048,21.536,40,48,40c9.792,0,16,5.248,16,8s-6.208,8-16,8
			c-4.864,0-9.216-1.184-12.544-3.392c-7.36-4.864-17.28-2.912-22.208,4.416c-4.896,7.36-2.944,17.312,4.416,22.208
			c4.352,2.88,9.184,5.088,14.336,6.56v18.208c0,8.832,7.168,16,16,16c8.832,0,16-7.168,16-16v-18.464
			c18.592-5.504,32-20.16,32-37.536C192,161.959,170.464,144.007,144,144.007z"/>
	</g>
</g>
<g>
	<g>
		<path d="M144,16.007c-79.392,0-144,64.608-144,144s64.608,144,144,144s144-64.608,144-144S223.392,16.007,144,16.007z
			 M144,272.007c-61.76,0-112-50.24-112-112s50.24-112,112-112s112,50.24,112,112S205.76,272.007,144,272.007z"/>
	</g>
</g>
<g>
	<g>
		<path d="M510.784,345.895c-2.496-5.984-8.32-9.888-14.784-9.888h-80v-176c0-79.392-64.608-144-144-144
			c-6.144,0-11.744,3.52-14.4,9.056c-2.688,5.568-1.952,12.128,1.92,16.928l35.936,44.928c15.84,19.808,24.544,44.64,24.544,69.984
			v179.104h-80c-6.464,0-12.32,3.904-14.784,9.888s-1.088,12.864,3.456,17.44l128,128c3.136,3.104,7.232,4.672,11.328,4.672
			s8.192-1.568,11.328-4.672l128-128C511.904,358.759,513.28,351.879,510.784,345.895z M368,457.383l-89.376-89.376H336
			c8.832,0,16-7.168,16-16V156.903c0-32.576-11.232-64.544-31.552-89.984l-9.6-12C353.504,70.759,384,111.879,384,160.007v192
			c0,8.832,7.168,16,16,16h57.376L368,457.383z"/>
	</g>
</g>
<g>
</g>
<g>
</g>
<g>
</g>
<g>
</g>
<g>
</g>
<g>
</g>
<g>
</g>
<g>
</g>
<g>
</g>
<g>
</g>
<g>
</g>
<g>
</g>
<g>
</g>
<g>
</g>
<g>
</g>
</svg>
