<svg id="Layer_1" enable-background="new 0 0 512 512" height="512" viewBox="0 0 512 512" width="512" xmlns="http://www.w3.org/2000/svg"><path d="m392 418.5h-152c-11.046 0-20-8.954-20-20s8.954-20 20-20h152c44.112 0 80-35.888 80-80v-164c0-44.112-35.888-80-80-80h-272c-44.112 0-80 35.888-80 80v154c0 5.514 4.486 10 10 10h60c11.046 0 20 8.954 20 20s-8.954 20-20 20h-60c-27.57 0-50-22.43-50-50v-154c0-66.168 53.832-120 120-120h272c66.168 0 120 53.832 120 120v164c0 66.168-53.832 120-120 120zm-212-20.021c0-11.046-8.954-20-20-20h-140c-11.046 0-20 8.954-20 20s8.954 20 20 20h140c11.046 0 20-8.954 20-20zm60 79.021c0-11.046-8.954-20-20-20h-200c-11.046 0-20 8.954-20 20s8.954 20 20 20h200c11.046 0 20-8.954 20-20zm96-261c0-44.112-35.888-80-80-80s-80 35.888-80 80 35.888 80 80 80 80-35.888 80-80zm-40 0c0 22.056-17.944 40-40 40s-40-17.944-40-40 17.944-40 40-40 40 17.944 40 40zm137-67c0-11.046-8.954-20-20-20-8.271 0-15-6.729-15-15 0-11.046-8.954-20-20-20s-20 8.954-20 20c0 30.327 24.673 55 55 55 11.046 0 20-8.954 20-20zm-277-33c0-11.046-8.954-20-20-20s-20 8.954-20 20c0 8.271-6.729 15-15 15-11.046 0-20 8.954-20 20s8.954 20 20 20c30.327 0 55-24.673 55-55zm242 202c0-8.271 6.729-15 15-15 11.046 0 20-8.954 20-20s-8.954-20-20-20c-30.327 0-55 24.673-55 55 0 11.046 8.954 20 20 20s20-8.954 20-20z"/></svg>